<svg width="208" height="527" viewBox="0 0 208 527" fill="none" xmlns="http://www.w3.org/2000/svg">
<path d="M36.601 155.69C27.9984 185.712 -3.88698 299.796 0.39324 326.879C5.33498 358.14 40.0431 393.436 64.2536 420.68C88.4642 447.924 114.796 494.74 116.496 527C116.496 527 158.097 464.592 155.996 423.658C153.895 382.725 131.691 377.051 109.973 332.596C97.2354 306.517 89.2391 274.094 81.1372 246.578C80.4467 244.23 77.3077 243.8 75.9794 245.856C59.731 271.01 82.2653 338.052 70.1521 356.635C61.655 369.671 41.6297 335.898 38.7095 317.426C33.9074 287.05 39.3209 244.504 45.7228 214.363C51.1389 188.867 49.0621 168.728 42.6313 155.173C42.0435 153.934 40.8918 153.341 39.7374 153.341C38.3879 153.341 37.0411 154.151 36.601 155.69Z" fill="url(#paint0_linear_4_5)"/>
<path d="M51.442 103.339C53.5426 144.275 75.7475 149.949 97.4648 194.401C110.205 220.486 118.199 252.906 126.298 280.419C126.991 282.77 130.13 283.2 131.459 281.141C147.71 255.987 125.175 188.946 137.286 170.365C145.786 157.326 165.808 191.102 168.729 209.574C173.531 239.947 168.117 282.493 161.715 312.637C156.299 338.131 158.373 358.275 164.807 371.824C166.08 374.51 170.02 374.165 170.837 371.308C179.44 341.288 211.328 227.201 207.045 200.118C202.103 168.857 167.398 133.561 143.184 106.32C118.974 79.0731 92.6416 32.2597 90.9417 0C90.9417 0 49.3415 62.4056 51.442 103.339Z" fill="url(#paint1_linear_4_5)"/>
<defs>
<linearGradient id="paint0_linear_4_5" x1="-5.12336e-06" y1="340.17" x2="156.073" y2="340.17" gradientUnits="userSpaceOnUse">
<stop stop-color="#36405B"/>
<stop offset="1" stop-color="#6C7AA8"/>
</linearGradient>
<linearGradient id="paint1_linear_4_5" x1="51.3657" y1="186.828" x2="207.438" y2="186.828" gradientUnits="userSpaceOnUse">
<stop stop-color="#895EE9"/>
<stop offset="1" stop-color="#3F3EBB"/>
</linearGradient>
</defs>
</svg>
